# xmcd CD database file
#
# Track frame offsets:
#	182
#	34567
#	59185
#	88157
#	127710
#	156280
#	201415
#	228112
#	259480
#
# Disc length: 3965 seconds
#
# Revision: 0
# Processed by: cddbd v1.5PL3 Copyright (c) Steve Scherf et al.
# Submitted via: CDex 1.51
#
DISCID=7b0f7b09
DTITLE=Harold Danko - New Autumn
DYEAR=1996
DGENRE=Jazz
TTITLE0=Notzenytz 
TTITLE1=Fresh Space
TTITLE2=Ticket To Obscurity
TTITLE3=New Autumn
TTITLE4=Hamsters
TTITLE5=Omniperception
TTITLE6=Hoplessness Regained
TTITLE7=Other Things In The Space
TTITLE8=Sizzle
EXTD=YEAR: 1996
EXTT0=
EXTT1=
EXTT2=
EXTT3=
EXTT4=
EXTT5=
EXTT6=
EXTT7=
EXTT8=
PLAYORDER=
